<?xml version="1.0" encoding="UTF-8"?>
<svg width="40px" height="40px" viewBox="0 0 40 40" version="1.1" xmlns="http://www.w3.org/2000/svg" xmlns:xlink="http://www.w3.org/1999/xlink">
    <title>Innovest Logo</title>
    <g id="Page-1" stroke="none" stroke-width="1" fill="none" fill-rule="evenodd">
        <g id="logo">
            <circle id="background" fill="#4154F1" cx="20" cy="20" r="20"></circle>
            <path d="M12,12 L28,12 C29.1045695,12 30,12.8954305 30,14 L30,26 C30,27.1045695 29.1045695,28 28,28 L12,28 C10.8954305,28 10,27.1045695 10,26 L10,14 C10,12.8954305 10.8954305,12 12,12 Z" id="rectangle" fill="#FFFFFF" opacity="0.5"></path>
            <path d="M15,15 L25,15 C25.5522847,15 26,15.4477153 26,16 L26,24 C26,24.5522847 25.5522847,25 25,25 L15,25 C14.4477153,25 14,24.5522847 14,24 L14,16 C14,15.4477153 14.4477153,15 15,15 Z" id="inner-rectangle" fill="#FFFFFF"></path>
            <circle id="dot" fill="#4154F1" cx="20" cy="20" r="3"></circle>
        </g>
    </g>
</svg>
